<?xml version="1.0" standalone="no"?>
<!DOCTYPE svg PUBLIC "-//W3C//DTD SVG 20010904//EN"
 "http://www.w3.org/TR/2001/REC-SVG-20010904/DTD/svg10.dtd">
<svg version="1.0" xmlns="http://www.w3.org/2000/svg"
 width="388.000000pt" height="388.000000pt" viewBox="0 0 388.000000 388.000000"
 preserveAspectRatio="xMidYMid meet">
<metadata>
Created by potrace 1.11, written by Peter Selinger 2001-2013
</metadata>
<g transform="translate(0.000000,388.000000) scale(0.100000,-0.100000)"
fill="#000000" stroke="none">
<path d="M1768 3875 c-1 -1 -30 -6 -63 -9 -135 -15 -374 -76 -480 -123 -22 -9
-42 -17 -45 -18 -3 0 -27 -11 -55 -23 -27 -13 -52 -22 -54 -22 -2 1 -7 -2 -10
-7 -3 -4 -24 -17 -46 -28 -44 -22 -205 -126 -246 -159 -15 -11 -44 -34 -65
-51 -62 -49 -215 -204 -278 -283 -83 -102 -168 -239 -232 -370 -31 -62 -57
-118 -58 -125 -1 -7 -4 -16 -7 -22 -8 -13 -55 -159 -68 -210 -10 -39 -16 -68
-26 -122 -3 -16 -7 -37 -10 -48 -13 -63 -20 -170 -19 -325 0 -173 4 -218 26
-335 6 -33 12 -69 14 -80 1 -11 3 -20 4 -20 2 0 7 -20 19 -70 5 -22 16 -60 26
-85 9 -25 18 -49 19 -55 13 -47 81 -197 131 -287 117 -209 291 -418 460 -553
28 -21 52 -42 55 -46 3 -3 47 -34 98 -69 219 -147 475 -252 722 -296 14 -2 35
-6 47 -9 131 -30 491 -27 654 6 30 5 65 13 79 15 14 3 50 12 80 20 30 8 62 16
70 18 88 21 415 170 450 206 3 3 17 11 31 18 14 8 41 27 60 43 19 16 37 29 40
29 3 0 17 9 30 20 13 11 42 35 63 52 71 59 211 201 268 273 106 134 219 322
280 470 52 123 109 327 124 440 3 28 10 73 14 100 8 51 6 404 -3 440 -2 11 -8
42 -11 68 -10 66 -8 56 -51 237 -18 75 -95 262 -150 366 -43 82 -143 240 -169
267 -6 7 -29 35 -51 62 -113 141 -293 299 -463 407 -228 145 -478 235 -782
283 -45 7 -415 16 -422 10z"/>
</g>
</svg>
